<svg aria-hidden="true" style="position:absolute;width:0;height:0" xmlns="http://www.w3.org/2000/svg" overflow="hidden"><defs><symbol id="clock" viewBox="0 0 32 32"><path d="M16 0C7.178 0 0 7.178 0 16s7.178 16 16 16 16-7.178 16-16S24.822 0 16 0zm0 30C8.28 30 2 23.72 2 16S8.28 2 16 2s14 6.28 14 14-6.28 14-14 14z"/><path d="M17 6h-2v10.414l6.293 6.293 1.414-1.414L17 15.586z"/></symbol><symbol id="compass" viewBox="0 0 32 32"><path d="M32 16c0-.046-.007-.091-.007-.137a15.966 15.966 0 00-4.676-11.18A15.914 15.914 0 0016.006.001h-.014A15.867 15.867 0 004.687 4.69C1.598 7.772.044 11.815.005 15.864c-.007.046-.007.091-.007.137s.007.091.007.137a15.966 15.966 0 004.676 11.18A15.93 15.93 0 0015.999 32a15.88 15.88 0 0011.311-4.689 15.947 15.947 0 004.676-11.18.755.755 0 00.013-.131zm-3.429 1.123h1.136a13.717 13.717 0 01-3.22 7.785l-.81-.81a1.123 1.123 0 00-1.587 1.587l.81.81a13.625 13.625 0 01-7.785 3.226v-1.143c0-.62-.503-1.117-1.117-1.117-.62 0-1.123.503-1.123 1.117v1.136a13.635 13.635 0 01-7.785-3.226l.81-.81a1.123 1.123 0 00-1.587-1.587l-.81.81a13.726 13.726 0 01-3.213-7.778h1.136c.62 0 1.123-.503 1.123-1.117 0-.62-.503-1.123-1.123-1.123H2.29a13.717 13.717 0 013.22-7.785l.81.81A1.12 1.12 0 107.9 6.321l-.81-.81a13.673 13.673 0 017.785-3.226v1.143c0 .62.503 1.123 1.123 1.123s1.117-.503 1.117-1.123V2.285A13.635 13.635 0 0124.9 5.511l-.803.81a1.123 1.123 0 00.79 1.914c.287 0 .575-.111.79-.327l.81-.81a13.734 13.734 0 013.22 7.784h-1.136c-.62 0-1.117.503-1.117 1.123a1.112 1.112 0 001.117 1.117z"/><path d="M19.337 13.238a1.12 1.12 0 00-.575-.575L10.52 9.045a1.123 1.123 0 00-1.476 1.476l3.618 8.242c.111.255.32.464.575.575l8.242 3.618c.144.065.3.091.451.091h.007c.62 0 1.117-.503 1.117-1.117 0-.202-.052-.392-.144-.555l-3.572-8.137zm-4.8 4.225l-2.286-5.211 5.211 2.286 2.286 5.211-5.211-2.286z"/></symbol><symbol id="envelope-1" viewBox="0 0 32 32"><path d="M28.094 3.824H3.914A3.916 3.916 0 00.001 7.737v16.526a3.916 3.916 0 003.913 3.913h24.174a3.916 3.916 0 003.913-3.913V7.743a3.912 3.912 0 00-3.906-3.92zm2.125 20.439a2.127 2.127 0 01-2.125 2.125H3.914a2.127 2.127 0 01-2.125-2.125V7.743c0-1.172.953-2.125 2.125-2.125h24.174c1.172 0 2.125.953 2.125 2.125v16.52h.007z"/><path d="M20.181 15.795l7.826-7.018a.899.899 0 00.066-1.265.899.899 0 00-1.265-.066l-10.792 9.687-2.106-1.88c-.007-.007-.013-.013-.013-.02a1.362 1.362 0 00-.146-.126L5.183 7.44c-.371-.331-.934-.298-1.265.073s-.298.934.073 1.265l7.919 7.078-7.886 7.383a.898.898 0 001.225 1.312l8.005-7.489 2.172 1.94a.894.894 0 001.192-.007l2.231-2 7.959 7.561a.896.896 0 001.265-.033.898.898 0 00-.033-1.265l-7.859-7.462z"/></symbol><symbol id="envelope" viewBox="0 0 32 32"><path d="M28.094 3.824H3.914A3.916 3.916 0 00.001 7.737v16.526a3.916 3.916 0 003.913 3.913h24.174a3.916 3.916 0 003.913-3.913V7.743a3.912 3.912 0 00-3.906-3.92zm2.125 20.439a2.127 2.127 0 01-2.125 2.125H3.914a2.127 2.127 0 01-2.125-2.125V7.743c0-1.172.953-2.125 2.125-2.125h24.174c1.172 0 2.125.953 2.125 2.125v16.52h.007z"/><path d="M20.181 15.795l7.826-7.018a.899.899 0 00.066-1.265.899.899 0 00-1.265-.066l-10.792 9.687-2.106-1.88c-.007-.007-.013-.013-.013-.02a1.362 1.362 0 00-.146-.126L5.183 7.44c-.371-.331-.934-.298-1.265.073s-.298.934.073 1.265l7.919 7.078-7.886 7.383a.898.898 0 001.225 1.312l8.005-7.489 2.172 1.94a.894.894 0 001.192-.007l2.231-2 7.959 7.561a.896.896 0 001.265-.033.898.898 0 00-.033-1.265l-7.859-7.462z"/></symbol><symbol id="forward" viewBox="0 0 32 32"><path d="M31.622 14.772c-.079-.118-.158-.237-.276-.315a1.995 1.995 0 00-.315-.276L18.375 5.467c-.513-.355-1.065-.434-1.617-.355-.552.118-1.065.394-1.38.907-.118.197-.237.394-.276.591-.039.158-.079.315-.079.473v6.388L3.352 5.467c-.513-.355-1.065-.434-1.617-.355-.552.118-1.065.394-1.38.907-.118.197-.237.394-.276.591C.04 6.768 0 6.925 0 7.083v17.664c0 .591.237 1.143.631 1.538s.946.631 1.538.631c.237 0 .513-.039.71-.118l12.144-8.28v6.23c0 .591.237 1.143.631 1.538s.946.631 1.538.631c.237 0 .513-.039.71-.118.237-.079.434-.197.591-.355l12.578-8.674c.513-.355.789-.867.907-1.38a2.345 2.345 0 00-.355-1.617zm-16.758 1.301L2.247 24.787c-.039 0-.039.039-.079.039h-.079c-.039 0-.079 0-.079-.039-.039-.039-.039-.039-.039-.079V7.162c0-.039.039-.039.079-.039h.079l12.656 8.753c0 .039.039.079 0 .079.118.079.079.118.079.118zm15.023 0l-12.578 8.714c-.039 0-.039.039-.079.039h-.079c-.039 0-.079 0-.079-.039-.039-.039-.039-.039-.039-.079V7.162c0-.039.039-.039.079-.039h.079l6.348 4.377 6.309 4.377c0 .039.039.079 0 .079.079.079.079.118.039.118z"/></symbol><symbol id="heart" viewBox="0 0 32 32"><path d="M29.415 4.545c-1.676-1.676-3.894-2.591-6.262-2.591s-4.593.923-6.268 2.598l-.875.875-.889-.889a8.828 8.828 0 00-6.275-2.605 8.8 8.8 0 00-6.255 2.591A8.77 8.77 0 000 10.792c0 2.368.929 4.586 2.605 6.262l12.74 12.74c.176.176.414.271.644.271s.468-.088.644-.265L29.4 17.08a8.805 8.805 0 002.598-6.268 8.76 8.76 0 00-2.585-6.268zm-1.302 11.241L15.99 27.861 3.894 15.765c-1.33-1.33-2.062-3.094-2.062-4.973s.726-3.643 2.056-4.966A6.975 6.975 0 018.847 3.77a7 7 0 014.979 2.062l1.533 1.533c.36.36.936.36 1.296 0l1.52-1.52c1.33-1.33 3.1-2.062 4.973-2.062s3.636.733 4.966 2.056a6.978 6.978 0 012.056 4.973 6.95 6.95 0 01-2.056 4.973z"/></symbol><symbol id="money" viewBox="0 0 32 32"><path d="M14.933 8.8a.533.533 0 101.066 0 2.482 2.482 0 00-2.133-2.351V6.4a.533.533 0 10-1.066 0v.049A2.482 2.482 0 0010.667 8.8a2.482 2.482 0 002.133 2.351v2.633a1.374 1.374 0 01-1.067-1.251.533.533 0 10-1.066 0 2.482 2.482 0 002.133 2.351v.049a.533.533 0 101.066 0v-.049a2.482 2.482 0 002.133-2.351 2.482 2.482 0 00-2.133-2.351V7.549A1.374 1.374 0 0114.933 8.8zm-3.2 0A1.373 1.373 0 0112.8 7.549v2.502A1.374 1.374 0 0111.733 8.8zm3.2 3.733a1.373 1.373 0 01-1.067 1.251v-2.502a1.374 1.374 0 011.067 1.251z"/><path d="M1.067 17.6h1.067v1.6c0 .589.478 1.067 1.067 1.067h1.067v1.6c0 .589.478 1.067 1.067 1.067h10.133a.533.533 0 100-1.066H5.335v-1.6h10.133a.533.533 0 100-1.066H3.201v-1.6h10.133c3.529 0 6.4-3.11 6.4-6.933a7.076 7.076 0 00-3.005-5.867H25.6v6.933a.533.533 0 101.066 0V4.802c0-.589-.478-1.067-1.067-1.067H5.866a.533.533 0 100 1.066h4.071a7.075 7.075 0 00-3.005 5.867 7.074 7.074 0 003.005 5.867H1.066V4.802h2.133a.533.533 0 100-1.066H1.066c-.589 0-1.067.478-1.067 1.067v11.733c0 .589.478 1.067 1.067 1.067zM8 10.667C8 7.432 10.393 4.8 13.333 4.8s5.333 2.632 5.333 5.867-2.393 5.867-5.333 5.867S8 13.902 8 10.667z"/><path d="M4.8 5.867H2.667a.533.533 0 00-.533.533v2.133a.533.533 0 101.066 0v-1.6h1.6a.533.533 0 100-1.066zm19.2 3.2a.533.533 0 00.533-.533V6.401A.533.533 0 0024 5.868h-2.133a.533.533 0 100 1.066h1.6v1.6c0 .295.239.533.533.533zm-21.333 3.2a.533.533 0 00-.533.533v2.133c0 .295.239.533.533.533H4.8a.533.533 0 100-1.066H3.2v-1.6a.533.533 0 00-.533-.533zm21.866 1.066A7.467 7.467 0 1032 20.8a7.475 7.475 0 00-7.467-7.467zm0 13.867c-3.535 0-6.4-2.865-6.4-6.4s2.865-6.4 6.4-6.4a6.4 6.4 0 110 12.8z"/><path d="M25.067 20.579v-4.046a.533.533 0 10-1.066 0V20.8c0 .141.056.277.156.377l2.133 2.133a.533.533 0 00.754-.754z"/></symbol><symbol id="phone-call" viewBox="0 0 32 32"><path d="M25.29 19.823c-.655-.682-1.445-1.047-2.283-1.047-.831 0-1.628.358-2.31 1.04l-2.134 2.127c-.176-.095-.351-.182-.52-.27-.243-.122-.473-.236-.669-.358-1.999-1.27-3.816-2.924-5.558-5.065-.844-1.067-1.412-1.965-1.824-2.877.554-.507 1.067-1.033 1.567-1.54.189-.189.378-.385.567-.574 1.418-1.418 1.418-3.255 0-4.674l-1.844-1.844c-.209-.209-.425-.425-.628-.642a31.411 31.411 0 00-1.27-1.256c-.655-.648-1.439-.993-2.263-.993s-1.621.344-2.296.993l-.014.014-2.296 2.317A4.94 4.94 0 00.049 8.315c-.162 1.972.419 3.809.865 5.011 1.094 2.951 2.729 5.687 5.167 8.618 2.958 3.532 6.517 6.322 10.583 8.287 1.553.736 3.627 1.607 5.943 1.756.142.007.29.014.425.014 1.56 0 2.87-.561 3.897-1.675.007-.014.02-.02.027-.034.351-.425.756-.81 1.182-1.222.29-.277.588-.567.878-.871.669-.696 1.02-1.506 1.02-2.337 0-.837-.358-1.641-1.04-2.317l-3.708-3.721zm2.418 7.112c-.007 0-.007.007 0 0-.263.284-.534.54-.824.824-.439.419-.885.858-1.303 1.351-.682.729-1.486 1.074-2.539 1.074-.101 0-.209 0-.311-.007-2.006-.128-3.87-.912-5.268-1.58-3.823-1.851-7.179-4.478-9.969-7.807-2.303-2.776-3.843-5.342-4.863-8.098-.628-1.682-.858-2.992-.756-4.228.068-.79.371-1.445.932-2.006L5.11 4.155c.331-.311.682-.48 1.027-.48.425 0 .77.257.986.473l.02.02c.412.385.804.783 1.216 1.209.209.216.425.432.642.655l1.844 1.844c.716.716.716 1.378 0 2.094-.196.196-.385.392-.581.581a35.386 35.386 0 01-1.695 1.648c-.014.014-.027.02-.034.034-.581.581-.473 1.148-.351 1.533l.02.061c.48 1.162 1.155 2.256 2.181 3.559l.007.007c1.864 2.296 3.829 4.086 5.997 5.457.277.176.561.317.831.453.243.122.473.236.669.358.027.014.054.034.081.047.23.115.446.169.669.169.561 0 .912-.351 1.027-.466l2.31-2.31c.23-.23.594-.507 1.02-.507.419 0 .763.263.973.493l.014.014 3.721 3.721c.696.689.696 1.398.007 2.114zM17.294 7.612c1.77.297 3.377 1.135 4.66 2.418s2.114 2.891 2.418 4.66a.905.905 0 00.898.756c.054 0 .101-.007.155-.014a.913.913 0 00.75-1.054c-.365-2.141-1.378-4.093-2.924-5.639s-3.498-2.56-5.639-2.924c-.5-.081-.966.25-1.054.743s.236.973.736 1.054zm14.669 6.504c-.601-3.525-2.263-6.734-4.815-9.287S21.387.615 17.861.014a.909.909 0 00-1.047.743c-.081.5.25.966.75 1.054 3.147.534 6.018 2.026 8.3 4.302a15.296 15.296 0 014.302 8.3.905.905 0 00.898.756c.054 0 .101-.007.155-.014a.895.895 0 00.743-1.04z"/></symbol><symbol id="shopping-cart" viewBox="0 0 32 32"><path d="M9.606 21.07h17.632a3.637 3.637 0 003.63-3.63V9.943c0-.013 0-.026-.007-.039 0-.013-.007-.033-.007-.046s-.007-.026-.007-.039c-.007-.013-.007-.026-.013-.046-.007-.013-.007-.026-.013-.039s-.007-.026-.013-.039a.298.298 0 01-.02-.046c-.007-.013-.013-.026-.02-.033l-.02-.039-.02-.033c-.007-.013-.02-.026-.026-.039s-.013-.02-.026-.033c-.007-.013-.02-.02-.026-.033s-.02-.02-.026-.033-.02-.02-.026-.026l-.033-.033c-.013-.007-.02-.02-.033-.026s-.026-.02-.039-.026l-.033-.02c-.013-.007-.026-.013-.039-.026l-.039-.02-.039-.02-.039-.02c-.013-.007-.026-.007-.039-.013-.013-.007-.033-.013-.046-.013s-.026-.007-.033-.007-.033-.007-.053-.007c-.007 0-.013-.007-.026-.007L7.759 6.058V2.941c0-.033 0-.066-.007-.092 0-.007 0-.013-.007-.026 0-.02-.007-.039-.007-.059-.007-.02-.007-.033-.013-.053 0-.013-.007-.02-.007-.033l-.02-.059c0-.007-.007-.02-.007-.026a.216.216 0 00-.026-.053c-.007-.007-.007-.02-.013-.026-.007-.013-.013-.026-.026-.039l-.02-.033-.02-.033c-.007-.013-.02-.026-.026-.039l-.02-.02-.039-.039-.02-.02a.267.267 0 00-.046-.039c-.007-.007-.02-.013-.026-.02-.013-.013-.026-.02-.039-.033-.02-.013-.039-.026-.053-.033-.007-.007-.013-.007-.02-.013l-.085-.039L2.365.075c-.454-.191-.973.02-1.164.474s.02.973.474 1.164l4.301 1.815v19.454a3.634 3.634 0 003.163 3.597 3.59 3.59 0 00-.513 1.841c0 1.98 1.611 3.584 3.584 3.584s3.584-1.611 3.584-3.584c0-.658-.178-1.282-.493-1.809h7.984a3.532 3.532 0 00-.493 1.809c0 1.98 1.611 3.584 3.584 3.584s3.584-1.611 3.584-3.584-1.611-3.584-3.584-3.584H9.606a1.857 1.857 0 01-1.855-1.855v-2.407c.539.316 1.177.5 1.855.5zm4.42 7.339c0 1-.816 1.809-1.809 1.809s-1.809-.816-1.809-1.809.816-1.809 1.809-1.809 1.809.809 1.809 1.809zm14.166 0c0 1-.816 1.809-1.809 1.809s-1.809-.816-1.809-1.809.816-1.809 1.809-1.809 1.809.809 1.809 1.809zm-.954-9.115H9.606a1.857 1.857 0 01-1.855-1.855V7.844l21.341 2.94v6.649a1.858 1.858 0 01-1.855 1.861z"/></symbol><symbol id="shuffle" viewBox="0 0 32 32"><path d="M12.234 22.389a.913.913 0 00-1.283.183 7.938 7.938 0 01-6.387 3.183H2.039c-.509 0-.916.407-.916.916s.407.916.916.916h2.532c1.568 0 3.068-.36 4.452-1.066a9.827 9.827 0 003.394-2.851.92.92 0 00-.183-1.283zM14.82 9.507a.926.926 0 001.289-.163 7.938 7.938 0 016.312-3.095h5.328l-2.844 2.844a.913.913 0 000 1.296c.176.176.414.271.645.271s.468-.088.645-.271l4.412-4.412a.913.913 0 000-1.296L26.195.269c-.36-.36-.937-.36-1.296 0s-.36.937 0 1.296l2.844 2.844h-5.328a9.766 9.766 0 00-7.765 3.808.931.931 0 00.17 1.29z"/><path d="M26.202 21.616c-.36-.36-.937-.36-1.296 0s-.36.937 0 1.296l2.844 2.844h-5.328c-4.405 0-7.989-3.584-7.989-7.989v-3.529c0-5.416-4.405-9.821-9.821-9.821H2.08c-.509 0-.916.407-.916.916s.407.916.916.916h2.532c4.405 0 7.989 3.584 7.989 7.989v3.529c0 5.416 4.405 9.821 9.821 9.821h5.328l-2.844 2.844a.913.913 0 000 1.296c.176.176.414.271.645.271s.468-.088.645-.271l4.412-4.412a.913.913 0 000-1.296l-4.405-4.405z"/></symbol><symbol id="worldwide" viewBox="0 0 32 32"><path d="M28.39 2.671a.388.388 0 00-.393-.386h-.007a.39.39 0 00-.386.399L27.63 5l-.451-.438c-3.056-2.984-7.093-4.6-11.366-4.554S7.542 1.768 4.558 4.824a15.93 15.93 0 00-4.221 7.905 16.059 16.059 0 00.602 8.696.4.4 0 00.373.249.301.301 0 00.131-.026.396.396 0 00.236-.504C-.304 15.615 1.012 9.568 5.114 5.368c5.863-6 15.515-6.112 21.509-.249l.451.438-2.31.033a.39.39 0 00-.386.399c0 .216.177.386.393.386h.007l3.265-.039a.392.392 0 00.386-.399l-.039-3.265zm2.67 7.905c-.079-.196-.308-.301-.51-.229s-.308.301-.236.504c1.983 5.536.667 11.582-3.435 15.783a15.184 15.184 0 01-10.882 4.574c-3.835 0-7.676-1.44-10.633-4.325l-.452-.438 2.316-.026a.39.39 0 00.386-.399.39.39 0 00-.399-.386l-3.259.033a.39.39 0 00-.386.399l.039 3.265c0 .216.177.386.393.386h.007a.39.39 0 00.386-.399l-.026-2.316.452.438a15.878 15.878 0 0011.176 4.554h.19a15.87 15.87 0 0011.255-4.816 15.93 15.93 0 004.221-7.905 16.059 16.059 0 00-.602-8.696z"/><path d="M24.837 12.336a9.552 9.552 0 00-8.251-5.889 3.105 3.105 0 00-.347-.02h-.033c-.072 0-.137-.007-.209-.007a9.536 9.536 0 00-3.658.733c-4.881 2.022-7.204 7.63-5.182 12.505a9.547 9.547 0 008.847 5.915h.282c.085 0 .164-.007.249-.013a9.634 9.634 0 003.128-.713c2.362-.975 4.201-2.82 5.182-5.176s.975-4.967-.007-7.335zM12.633 7.88c.281-.118.576-.222.864-.308-.478.438-.916.995-1.302 1.656-.478.831-.857 1.799-1.126 2.866H8.124a8.824 8.824 0 014.508-4.214zm-.935 5.006h4.142v6.229h-4.109A14.797 14.797 0 0111.397 16c0-1.099.105-2.153.301-3.115zm-3.927 6.236a8.84 8.84 0 01.013-6.243c.02 0 .033.007.052.007h3.056c-.19.982-.288 2.035-.288 3.115 0 1.073.105 2.12.308 3.115H7.83c-.02 0-.039 0-.059.007zm.354.778h2.984c.262.995.628 1.917 1.086 2.729.419.746.896 1.361 1.413 1.832A8.745 8.745 0 018.125 19.9zm7.721 4.856c-1.099-.17-2.14-1.047-2.964-2.513a10.949 10.949 0 01-.949-2.343h3.913v4.855zm0-12.655h-3.959c.72-2.716 2.192-4.613 3.959-4.855v4.855zm8.023 0h-2.467c-.268-1.067-.648-2.035-1.125-2.866a7.213 7.213 0 00-1.047-1.407 8.746 8.746 0 014.639 4.273zm-7.238-4.856c1.767.249 3.232 2.14 3.959 4.855h-3.959V7.245zm0 5.641h4.142c.196.962.301 2.009.301 3.115 0 1.06-.118 2.12-.334 3.115h-4.109v-6.229zm0 11.87v-4.855h3.913a10.97 10.97 0 01-.949 2.343c-.831 1.466-1.871 2.343-2.964 2.513zm2.729-.635c-.079.033-.164.065-.242.098a7.712 7.712 0 001.165-1.59c.458-.811.825-1.734 1.086-2.729h2.506a8.774 8.774 0 01-4.515 4.221zm4.849-5.006h-2.663c.203-.995.308-2.048.308-3.115 0-1.086-.098-2.133-.288-3.115h2.637a8.63 8.63 0 01.007 6.229z"/></symbol></defs></svg>